<svg width="16" height="16" viewBox="0 0 16 16" fill="none" xmlns="http://www.w3.org/2000/svg">
<g clip-path="url(#clip0_760_8)">
<path d="M14.9271 8.63425C14.9269 8.63442 14.9268 8.63462 14.9266 8.63479L11.9362 11.6107C11.7122 11.8336 11.3499 11.8328 11.1269 11.6088C10.9039 11.3847 10.9048 11.0224 11.1288 10.7994L13.1365 8.80144L1.01663 8.80144C0.70055 8.80144 0.444336 8.54523 0.444336 8.22915C0.444336 7.91308 0.70055 7.65686 1.01663 7.65686L13.1365 7.65687L11.1288 5.65889C10.9048 5.43593 10.904 5.07358 11.1269 4.84956C11.3499 4.62548 11.7123 4.62471 11.9363 4.84761L14.9266 7.82352C14.9268 7.82369 14.9269 7.82389 14.9271 7.82406C15.1513 8.04777 15.1505 8.41129 14.9271 8.63425Z" fill="#212121"/>
</g>
<defs>
<clipPath id="clip0_760_8">
<rect width="14.6506" height="14.6506" fill="white" transform="matrix(1 8.74228e-08 8.74228e-08 -1 0.444336 15.5547)"/>
</clipPath>
</defs>
</svg>
