<svg width="48" height="48" viewBox="0 0 48 48" fill="none" xmlns="http://www.w3.org/2000/svg">
<rect x="0.5" y="0.5" width="47" height="47" rx="23.5" stroke="white"/>
<g clip-path="url(#clip0_15715_81)">
<path d="M29.5166 18.1268C29.5163 18.1268 29.516 18.1268 29.5158 18.1268L24.9085 18.1472C24.5633 18.1487 24.2847 18.4297 24.2862 18.775C24.2877 19.1201 24.5687 19.3987 24.9139 19.3972L28.0072 19.3835L18.6666 28.7616C18.423 29.0062 18.4238 29.4019 18.6684 29.6455C18.9129 29.8891 19.3087 29.8883 19.5523 29.6437L28.8929 20.2656L28.8916 23.3589C28.8915 23.7041 29.1712 23.984 29.5164 23.9841C29.8616 23.9843 30.1415 23.7045 30.1416 23.3594L30.1435 18.752C30.1435 18.7518 30.1435 18.7515 30.1435 18.7512C30.1431 18.4054 29.8613 18.1258 29.5166 18.1268Z" fill="white"/>
</g>
<defs>
<clipPath id="clip0_15715_81">
<rect width="16" height="16" fill="white" transform="translate(13 24) rotate(-45.1148)"/>
</clipPath>
</defs>
</svg>
