<svg width="168" height="38" viewBox="0 0 168 38" fill="none" xmlns="http://www.w3.org/2000/svg">
<g clip-path="url(#clip0_2044_132)">
<path d="M66.6074 13.9993V0.728516H70.3535C71.508 0.728516 72.5289 0.98372 73.416 1.49414C74.3032 2.00455 74.9868 2.73069 75.4668 3.67253C75.9529 4.61436 76.199 5.69596 76.2051 6.91732V7.76498C76.2051 9.01675 75.962 10.1135 75.4759 11.0553C74.9959 11.9972 74.3062 12.7203 73.4069 13.2246C72.5137 13.7289 71.4716 13.9872 70.2806 13.9993H66.6074ZM68.3574 2.16862V12.5684H70.1986C71.5475 12.5684 72.5957 12.1491 73.3431 11.3106C74.0966 10.472 74.4733 9.278 74.4733 7.72852V6.95378C74.4733 5.44683 74.1178 4.27713 73.4069 3.44466C72.702 2.60612 71.6994 2.18077 70.3991 2.16862H68.3574ZM83.7246 8.63089H80.6074V13.9993H78.8483V0.728516H83.2416C84.7363 0.728516 85.8848 1.06879 86.6869 1.74935C87.495 2.4299 87.8991 3.42036 87.8991 4.7207C87.8991 5.54709 87.6743 6.26714 87.2246 6.88086C86.7811 7.49458 86.1613 7.95337 85.3652 8.25717L88.4824 13.89V13.9993H86.6048L83.7246 8.63089ZM80.6074 7.19987H83.2962C84.1652 7.19987 84.8548 6.97504 85.3652 6.52539C85.8817 6.07574 86.14 5.47417 86.14 4.7207C86.14 3.90039 85.8939 3.27148 85.4017 2.83398C84.9156 2.39648 84.2108 2.1747 83.2871 2.16862H80.6074V7.19987ZM97.8613 7.86525H92.11V12.5684H98.791V13.9993H90.36V0.728516H98.6999V2.16862H92.11V6.43425H97.8613V7.86525ZM108.298 10.5358H102.738L101.489 13.9993H99.6843L104.752 0.728516H106.283L111.36 13.9993H109.564L108.298 10.5358ZM103.266 9.09569H107.778L105.518 2.88867L103.266 9.09569ZM115.407 0.728516L119.745 11.5567L124.084 0.728516H126.354V13.9993H124.604V8.8314L124.768 3.25325L120.411 13.9993H119.071L114.723 3.2806L114.896 8.8314V13.9993H113.146V0.728516H115.407ZM132.816 7.82877L131.193 9.51499V13.9993H129.443V0.728516H131.193V7.29102L137.09 0.728516H139.205L133.982 6.5892L139.615 13.9993H137.519L132.816 7.82877ZM148.475 10.5358H142.915L141.666 13.9993H139.861L144.929 0.728516H146.46L151.537 13.9993H149.742L148.475 10.5358ZM143.443 9.09569H147.955L145.695 2.88867L143.443 9.09569ZM155.584 0.728516L159.923 11.5567L164.261 0.728516H166.531V13.9993H164.781V8.8314L164.945 3.25325L160.588 13.9993H159.248L154.901 3.2806L155.073 8.8314V13.9993H153.323V0.728516H155.584Z" fill="white"/>
<path d="M77.0404 24.1771H72.7748V36.0078H71.0339V24.1771H66.7773V22.737H77.0404V24.1771ZM88.9623 29.8008C88.9623 31.1011 88.7435 32.2374 88.306 33.2096C87.8685 34.1758 87.2488 34.9141 86.4466 35.4245C85.6446 35.9349 84.7088 36.1901 83.6393 36.1901C82.5942 36.1901 81.6676 35.9349 80.8594 35.4245C80.0513 34.908 79.4224 34.1758 78.9727 33.2279C78.5291 32.2739 78.3013 31.171 78.2891 29.9193V28.9623C78.2891 27.6862 78.5109 26.5591 78.9545 25.5808C79.398 24.6024 80.0239 23.8551 80.8321 23.3385C81.6463 22.816 82.576 22.5547 83.6211 22.5547C84.6845 22.5547 85.6203 22.813 86.4284 23.3294C87.2426 23.8399 87.8685 24.5842 88.306 25.5625C88.7435 26.5347 88.9623 27.668 88.9623 28.9623V29.8008ZM87.2214 28.9441C87.2214 27.3702 86.9054 26.1641 86.2735 25.3255C85.6415 24.4809 84.7574 24.0586 83.6211 24.0586C82.5152 24.0586 81.6432 24.4809 81.0052 25.3255C80.3733 26.1641 80.0482 27.3308 80.03 28.8255V29.8008C80.03 31.326 80.349 32.526 80.987 33.401C81.6311 34.27 82.5152 34.7044 83.6393 34.7044C84.7696 34.7044 85.6446 34.2943 86.2643 33.474C86.8841 32.6476 87.2032 31.4658 87.2214 29.9284V28.9441ZM100.93 22.737V31.7605C100.924 33.0121 100.529 34.036 99.7449 34.8321C98.9671 35.628 97.9098 36.0746 96.5729 36.1719L96.1081 36.1901C94.6559 36.1901 93.4983 35.7982 92.6354 35.0144C91.7726 34.2305 91.3351 33.1519 91.3229 31.7787V22.737H93.0547V31.724C93.0547 32.6841 93.319 33.4314 93.8477 33.9662C94.3763 34.4948 95.1298 34.7591 96.1081 34.7591C97.0985 34.7591 97.8551 34.4948 98.3776 33.9662C98.9062 33.4375 99.1706 32.6932 99.1706 31.7331V22.737H100.93ZM108.559 30.6394H105.441V36.0078H103.682V22.737H108.076C109.57 22.737 110.719 23.0773 111.521 23.7578C112.329 24.4384 112.733 25.4288 112.733 26.7292C112.733 27.5556 112.508 28.2756 112.059 28.8894C111.615 29.503 110.995 29.9619 110.199 30.2657L113.316 35.8985V36.0078H111.439L108.559 30.6394ZM105.441 29.2083H108.13C108.999 29.2083 109.689 28.9836 110.199 28.5339C110.716 28.0842 110.974 27.4827 110.974 26.7292C110.974 25.9089 110.728 25.2799 110.236 24.8424C109.75 24.4049 109.045 24.1832 108.121 24.1771H105.441V29.2083Z" fill="white"/>
</g>
<g clip-path="url(#clip1_2044_132)">
<path fill-rule="evenodd" clip-rule="evenodd" d="M0.607422 31.8498V2.02042C0.607422 0.904576 1.51337 0 2.63091 0H17.5682C19.0724 0 20.0508 1.5806 19.3781 2.92399L4.44077 32.7534C3.48586 34.6603 0.607422 33.9818 0.607422 31.8498ZM50.3852 31.8498V2.02042C50.3852 0.904576 49.4791 0 48.3617 0H33.4244C31.9202 0 30.9418 1.5806 31.6145 2.92399L46.5519 32.7534C47.5066 34.6603 50.3852 33.9818 50.3852 31.8498ZM26.5081 35.1554V5.32596C26.5081 3.19398 29.3865 2.51549 30.3414 4.42243L45.2787 34.2518C45.9513 35.5952 44.9732 37.1758 43.4689 37.1758H28.5315C27.414 37.1758 26.5081 36.2712 26.5081 35.1554ZM24.4846 5.32596V35.1554C24.4846 36.2712 23.5786 37.1758 22.4611 37.1758H7.52378C6.01956 37.1758 5.04121 35.5952 5.71389 34.2518L20.6512 4.42243C21.6061 2.51549 24.4846 3.19398 24.4846 5.32596Z" fill="url(#paint0_linear_2044_132)"/>
</g>
<defs>
<linearGradient id="paint0_linear_2044_132" x1="25.6987" y1="37.1758" x2="25.6987" y2="-4.4317e-06" gradientUnits="userSpaceOnUse">
<stop offset="0.286458" stop-color="white"/>
<stop offset="1" stop-color="white"/>
</linearGradient>
<clipPath id="clip0_2044_132">
<rect width="101.111" height="36.5556" fill="white" transform="translate(66)"/>
</clipPath>
<clipPath id="clip1_2044_132">
<rect width="49.7778" height="37.1758" fill="white"/>
</clipPath>
</defs>
</svg>
