<svg style='display: none' xmlns='http://www.w3.org/2000/svg'>
  <symbol viewBox="0 0 19 20" id='facebook-promo'>
    <path d="M14.3098 0H11.7209C8.57656 0 6.54594 1.98843 6.54594 5.06678V7.03521H3.94016C3.69688 7.03521 3.5 7.22377 3.5 7.45661V10.8421C3.5 11.0749 3.69688 11.2621 3.94016 11.2621H6.54594V19.58C6.54594 19.8114 6.74281 20 6.98469 20H10.655C10.8997 20 11.0966 19.8114 11.0966 19.58V11.2606H14.3084C14.5517 11.2606 14.7486 11.0735 14.7486 10.8407L14.75 7.45661C14.7494 7.40097 14.7376 7.34604 14.7154 7.2952C14.6931 7.24435 14.6609 7.19866 14.6206 7.16092C14.5363 7.0809 14.4252 7.03647 14.3098 7.03664H11.0966V5.42247C11.0966 4.47111 11.3342 3.98829 12.6336 3.98829L14.3098 3.98257C14.5517 3.98257 14.7486 3.79544 14.7486 3.5626V0.41997C14.75 0.188558 14.5531 0 14.3098 0Z"/>
  </symbol>

  <symbol viewBox="0 0 20 20" id='instagram-promo'>
    <path d="M5.71429 0H14.2857C15.8012 0 17.2547 0.602039 18.3263 1.67368C19.398 2.74531 20 4.19876 20 5.71429V14.2857C20 15.8012 19.398 17.2547 18.3263 18.3263C17.2547 19.398 15.8012 20 14.2857 20H5.71429C4.19876 20 2.74531 19.398 1.67368 18.3263C0.602039 17.2547 0 15.8012 0 14.2857V5.71429C0 4.19876 0.602039 2.74531 1.67368 1.67368C2.74531 0.602039 4.19876 0 5.71429 0ZM10 14.2857C11.1366 14.2857 12.2267 13.8342 13.0305 13.0305C13.8342 12.2267 14.2857 11.1366 14.2857 10C14.2857 8.86336 13.8342 7.77327 13.0305 6.96954C12.2267 6.16582 11.1366 5.71429 10 5.71429C8.86336 5.71429 7.77327 6.16582 6.96954 6.96954C6.16582 7.77327 5.71429 8.86336 5.71429 10C5.71429 11.1366 6.16582 12.2267 6.96954 13.0305C7.77327 13.8342 8.86336 14.2857 10 14.2857ZM14.92 6.34857C15.0903 6.35428 15.2599 6.32568 15.4189 6.26447C15.5779 6.20325 15.723 6.11067 15.8454 5.99224C15.9679 5.87382 16.0653 5.73196 16.1318 5.57511C16.1983 5.41827 16.2326 5.24965 16.2326 5.07929C16.2326 4.90892 16.1983 4.7403 16.1318 4.58346C16.0653 4.42661 15.9679 4.28476 15.8454 4.16633C15.723 4.0479 15.5779 3.95532 15.4189 3.89411C15.2599 3.83289 15.0903 3.80429 14.92 3.81C14.5907 3.82105 14.2786 3.95961 14.0496 4.19645C13.8206 4.43328 13.6926 4.74984 13.6926 5.07929C13.6926 5.40874 13.8206 5.7253 14.0496 5.96213C14.2786 6.19896 14.5907 6.33752 14.92 6.34857Z"/>
  </symbol>

  <symbol viewBox="0 0 23 23" id='icon-instagram'>
    <g clip-path="url(#clip0_1828_190)">
    <path d="M16.3189 0H6.68114C2.99714 0 0 2.99714 0 6.68114V16.3189C0 20.0029 2.99714 23 6.68114 23H16.3189C20.0029 23 23 20.0029 23 16.3189V6.68114C23 2.99714 20.0029 0 16.3189 0ZM21.2031 16.3189C21.2031 19.0121 19.0121 21.2031 16.3189 21.2031H6.68114C3.98794 21.2031 1.79688 19.0121 1.79688 16.3189V6.68114C1.79688 3.98794 3.98794 1.79688 6.68114 1.79688H16.3189C19.0121 1.79688 21.2031 3.98794 21.2031 6.68114V16.3189Z" fill="black"/>
    <path d="M11.5 5.30078C8.08171 5.30078 5.30078 8.08171 5.30078 11.5C5.30078 14.9183 8.08171 17.6992 11.5 17.6992C14.9183 17.6992 17.6992 14.9183 17.6992 11.5C17.6992 8.08171 14.9183 5.30078 11.5 5.30078ZM11.5 15.9023C9.07256 15.9023 7.09766 13.9274 7.09766 11.5C7.09766 9.07256 9.07256 7.09766 11.5 7.09766C13.9274 7.09766 15.9023 9.07256 15.9023 11.5C15.9023 13.9274 13.9274 15.9023 11.5 15.9023Z" fill="black"/>
    <path d="M17.7891 6.10938C18.2853 6.10938 18.6875 5.70713 18.6875 5.21094C18.6875 4.71474 18.2853 4.3125 17.7891 4.3125C17.2929 4.3125 16.8906 4.71474 16.8906 5.21094C16.8906 5.70713 17.2929 6.10938 17.7891 6.10938Z" fill="black"/>
    </g>
    <defs>
    <clipPath id="clip0_1828_190">
    <rect width="23" height="23" fill="white"/>
    </clipPath>
    </defs>
  </symbol>

  <symbol viewBox="0 0 24 23" id='icon-facebook'>
    <g clip-path="url(#clip0_1828_186)">
    <path d="M13.62 22.9551H9.76908C9.12585 22.9551 8.60261 22.4546 8.60261 21.8394V13.5317H6.35592C5.71269 13.5317 5.18945 13.031 5.18945 12.416V8.8561C5.18945 8.24088 5.71269 7.74043 6.35592 7.74043H8.60261V5.95776C8.60261 4.19019 9.18291 2.68636 10.2806 1.60912C11.3832 0.526955 12.9241 -0.0449219 14.7367 -0.0449219L17.6736 -0.0403595C18.3157 -0.0393066 18.8381 0.461151 18.8381 1.07532V4.38059C18.8381 4.9958 18.315 5.49626 17.672 5.49626L15.6946 5.49696C15.0915 5.49696 14.938 5.6126 14.9051 5.64805C14.851 5.70683 14.7866 5.87301 14.7866 6.33188V7.74025H17.5234C17.7294 7.74025 17.929 7.78886 18.1005 7.88046C18.4706 8.07822 18.7006 8.45216 18.7006 8.85628L18.6992 12.4162C18.6992 13.031 18.1759 13.5315 17.5327 13.5315H14.7866V21.8394C14.7866 22.4546 14.2632 22.9551 13.62 22.9551ZM10.0124 21.6067H13.3767V12.928C13.3767 12.5172 13.7262 12.1831 14.1555 12.1831H17.2894L17.2907 9.08878H14.1553C13.726 9.08878 13.3767 8.75468 13.3767 8.34389V6.33188C13.3767 5.8051 13.4327 5.20602 13.8484 4.75575C14.3507 4.21143 15.1424 4.14861 15.6942 4.14861L17.4283 4.1479V1.30765L14.7356 1.30344C11.8226 1.30344 10.0124 3.08698 10.0124 5.95776V8.34389C10.0124 8.7545 9.66303 9.08878 9.23373 9.08878H6.59919V12.1831H9.23373C9.66303 12.1831 10.0124 12.5172 10.0124 12.928V21.6067ZM17.6709 1.308H17.671H17.6709Z" fill="black"/>
    </g>
    <defs>
    <clipPath id="clip0_1828_186">
    <rect width="24" height="23" fill="white"/>
    </clipPath>
    </defs>
  </symbol>

  <symbol viewBox="0 0 31 30" id='icon-vkontakte'>
    <g clip-path="url(#clip0_1828_188)">
    <path d="M16.1344 24.375C20.4744 24.375 18.9269 21.6275 19.2619 20.8375C19.2569 20.2475 19.2519 19.68 19.2719 19.335C19.5469 19.4125 20.1956 19.7412 21.5356 21.0437C23.6044 23.1312 24.1331 24.375 25.8044 24.375H28.8806C29.8556 24.375 30.3631 23.9713 30.6169 23.6325C30.8619 23.305 31.1019 22.73 30.8394 21.835C30.1531 19.68 26.1506 15.9587 25.9019 15.5662C25.9394 15.4937 25.9994 15.3975 26.0306 15.3475H26.0281C26.8181 14.3038 29.8331 9.78625 30.2769 7.97875C30.2781 7.97625 30.2794 7.9725 30.2794 7.96875C30.5194 7.14375 30.2994 6.60875 30.0719 6.30625C29.7294 5.85375 29.1844 5.625 28.4481 5.625H25.3719C24.3419 5.625 23.5606 6.14375 23.1656 7.09C22.5044 8.77125 20.6469 12.2288 19.2544 13.4525C19.2119 11.7188 19.2406 10.395 19.2631 9.41125C19.3081 7.4925 19.4531 5.625 17.4619 5.625H12.6269C11.3794 5.625 10.1856 6.9875 11.4781 8.605C12.6081 10.0225 11.8844 10.8125 12.1281 14.745C11.1781 13.7262 9.48812 10.975 8.29313 7.45875C7.95813 6.5075 7.45062 5.62625 6.02187 5.62625H2.94562C1.69812 5.62625 0.953125 6.30625 0.953125 7.445C0.953125 10.0025 6.61438 24.375 16.1344 24.375ZM6.02187 7.50125C6.29312 7.50125 6.32062 7.50125 6.52187 8.0725C7.74563 11.6762 10.4906 17.0088 12.4956 17.0088C14.0019 17.0088 14.0019 15.465 14.0019 14.8837L14.0006 10.2562C13.9181 8.725 13.3606 7.9625 12.9944 7.5L17.3794 7.505C17.3819 7.52625 17.3544 12.6237 17.3919 13.8587C17.3919 15.6125 18.7844 16.6175 20.9581 14.4175C23.2519 11.8288 24.8381 7.95875 24.9019 7.80125C24.9956 7.57625 25.0769 7.5 25.3719 7.5H28.4481H28.4606C28.4594 7.50375 28.4594 7.5075 28.4581 7.51125C28.1769 8.82375 25.4006 13.0063 24.4719 14.305C24.4569 14.325 24.4431 14.3463 24.4294 14.3675C24.0206 15.035 23.6881 15.7725 24.4856 16.81H24.4869C24.5594 16.8975 24.7481 17.1025 25.0231 17.3875C25.8781 18.27 28.8106 21.2875 29.0706 22.4875C28.8981 22.515 28.7106 22.495 25.8044 22.5012C25.1856 22.5012 24.7019 21.5763 22.8556 19.7137C21.1956 18.0988 20.1181 17.4388 19.1369 17.4388C17.2319 17.4388 17.3706 18.985 17.3881 20.855C17.3944 22.8825 17.3819 22.2413 17.3956 22.3688C17.2844 22.4125 16.9656 22.5 16.1344 22.5C8.20313 22.5 3.03813 9.91125 2.83937 7.505C2.90812 7.49875 3.85437 7.5025 6.02187 7.50125Z" fill="black"/>
    </g>
    <defs>
    <clipPath id="clip0_1828_188">
    <rect width="30" height="30" fill="white" transform="translate(0.953125)"/>
    </clipPath>
    </defs>
  </symbol>


  <symbol viewBox="0 0 20 20" id='icon-instagram-footer'>
    <path d="M13.6446 0H5.58624C2.50597 0 0 2.60621 0 5.80969V14.1903C0 17.3938 2.50597 20 5.58624 20H13.6445C16.7248 20 19.2308 17.3938 19.2308 14.1904V5.80969C19.2308 2.60621 16.7248 0 13.6446 0ZM17.7284 14.1903C17.7284 16.5322 15.8964 18.4375 13.6446 18.4375H5.58624C3.3344 18.4375 1.5024 16.5322 1.5024 14.1904V5.80969C1.5024 3.46777 3.3344 1.5625 5.58624 1.5625H13.6445C15.8964 1.5625 17.7284 3.46777 17.7284 5.80969V14.1903Z" fill="#BABABA"/>
    <path d="M9.61591 4.60938C6.75781 4.60938 4.43262 7.02758 4.43262 10C4.43262 12.9724 6.75781 15.3906 9.61591 15.3906C12.474 15.3906 14.7992 12.9724 14.7992 10C14.7992 7.02758 12.474 4.60938 9.61591 4.60938ZM9.61591 13.8281C7.58628 13.8281 5.93502 12.1108 5.93502 10C5.93502 7.88918 7.58628 6.17188 9.61591 6.17188C11.6455 6.17188 13.2968 7.88918 13.2968 10C13.2968 12.1108 11.6455 13.8281 9.61591 13.8281Z" fill="#BABABA"/>
    <path d="M14.8733 5.3125C15.2881 5.3125 15.6245 4.96272 15.6245 4.53125C15.6245 4.09978 15.2881 3.75 14.8733 3.75C14.4584 3.75 14.1221 4.09978 14.1221 4.53125C14.1221 4.96272 14.4584 5.3125 14.8733 5.3125Z" fill="#BABABA"/>
  </symbol>

  <symbol viewBox="0 0 21 20" id='icon-facebook-footer'>
    <g clip-path="url(#clip0_2044_167)">
    <path d="M12.0173 19.9609H8.68482C8.12818 19.9609 7.67538 19.5258 7.67538 18.9908V11.7667H5.73112C5.17448 11.7667 4.72168 11.3313 4.72168 10.7965V7.70096C4.72168 7.16599 5.17448 6.7308 5.73112 6.7308H7.67538V5.18066C7.67538 3.64365 8.17756 2.33597 9.12746 1.39923C10.0816 0.458221 11.4151 -0.0390625 12.9837 -0.0390625L15.5253 -0.0350952C16.081 -0.0341797 16.533 0.401001 16.533 0.935059V3.8092C16.533 4.34418 16.0803 4.77936 15.5239 4.77936L13.8127 4.77997C13.2908 4.77997 13.1579 4.88052 13.1295 4.91135C13.0827 4.96246 13.0269 5.10696 13.0269 5.50598V6.73065H15.3953C15.5735 6.73065 15.7463 6.77292 15.8947 6.85257C16.215 7.02454 16.4141 7.3497 16.4141 7.70111L16.4128 10.7967C16.4128 11.3313 15.96 11.7665 15.4033 11.7665H13.0269V18.9908C13.0269 19.5258 12.574 19.9609 12.0173 19.9609ZM8.89534 18.7885H11.8068V11.2418C11.8068 10.8846 12.1093 10.594 12.4808 10.594H15.1928L15.1939 7.90329H12.4806C12.1091 7.90329 11.8068 7.61276 11.8068 7.25555V5.50598C11.8068 5.04791 11.8552 4.52698 12.215 4.13544C12.6497 3.66211 13.3348 3.60748 13.8123 3.60748L15.313 3.60687V1.13709L12.9828 1.13342C10.4619 1.13342 8.89534 2.68433 8.89534 5.18066V7.25555C8.89534 7.61261 8.59305 7.90329 8.22153 7.90329H5.94164V10.594H8.22153C8.59305 10.594 8.89534 10.8846 8.89534 11.2418V18.7885ZM15.5229 1.13739H15.5231H15.5229Z" fill="#BABABA"/>
    </g>
    <defs>
    <clipPath id="clip0_2044_167">
    <rect width="20.7692" height="20" fill="white" transform="translate(0.230469)"/>
    </clipPath>
    </defs>
  </symbol>

  <symbol viewBox="0 0 24 24" id='icon-vk-footer'>
    <g clip-path="url(#clip0_2044_169)">
    <path d="M12.145 19.5C15.617 19.5 14.379 17.302 14.647 16.67C14.643 16.198 14.639 15.744 14.655 15.468C14.875 15.53 15.394 15.793 16.466 16.835C18.121 18.505 18.544 19.5 19.881 19.5H22.342C23.122 19.5 23.528 19.177 23.731 18.906C23.927 18.644 24.119 18.184 23.909 17.468C23.36 15.744 20.158 12.767 19.959 12.453C19.989 12.395 20.037 12.318 20.062 12.278H20.06C20.692 11.443 23.104 7.829 23.459 6.383C23.46 6.381 23.461 6.378 23.461 6.375C23.653 5.715 23.477 5.287 23.295 5.045C23.021 4.683 22.585 4.5 21.996 4.5H19.535C18.711 4.5 18.086 4.915 17.77 5.672C17.241 7.017 15.755 9.783 14.641 10.762C14.607 9.375 14.63 8.316 14.648 7.529C14.684 5.994 14.8 4.5 13.207 4.5H9.339C8.341 4.5 7.386 5.59 8.42 6.884C9.324 8.018 8.745 8.65 8.94 11.796C8.18 10.981 6.828 8.78 5.872 5.967C5.604 5.206 5.198 4.501 4.055 4.501H1.594C0.596 4.501 0 5.045 0 5.956C0 8.002 4.529 19.5 12.145 19.5ZM4.055 6.001C4.272 6.001 4.294 6.001 4.455 6.458C5.434 9.341 7.63 13.607 9.234 13.607C10.439 13.607 10.439 12.372 10.439 11.907L10.438 8.205C10.372 6.98 9.926 6.37 9.633 6L13.141 6.004C13.143 6.021 13.121 10.099 13.151 11.087C13.151 12.49 14.265 13.294 16.004 11.534C17.839 9.463 19.108 6.367 19.159 6.241C19.234 6.061 19.299 6 19.535 6H21.996H22.006C22.005 6.003 22.005 6.006 22.004 6.009C21.779 7.059 19.558 10.405 18.815 11.444C18.803 11.46 18.792 11.477 18.781 11.494C18.454 12.028 18.188 12.618 18.826 13.448H18.827C18.885 13.518 19.036 13.682 19.256 13.91C19.94 14.616 22.286 17.03 22.494 17.99C22.356 18.012 22.206 17.996 19.881 18.001C19.386 18.001 18.999 17.261 17.522 15.771C16.194 14.479 15.332 13.951 14.547 13.951C13.023 13.951 13.134 15.188 13.148 16.684C13.153 18.306 13.143 17.793 13.154 17.895C13.065 17.93 12.81 18 12.145 18C5.8 18 1.668 7.929 1.509 6.004C1.564 5.999 2.321 6.002 4.055 6.001Z" fill="#BABABA"/>
    </g>
    <defs>
    <clipPath id="clip0_2044_169">
    <rect width="24" height="24" fill="white"/>
    </clipPath>
    </defs>
  </symbol>


</svg>
